<?xml version="1.0" encoding="utf-8"?>
<!-- Generator: Adobe Illustrator 26.0.3, SVG Export Plug-In . SVG Version: 6.00 Build 0)  -->
<svg version="1.1" id="Layer_1" xmlns="http://www.w3.org/2000/svg" xmlns:xlink="http://www.w3.org/1999/xlink" x="0px" y="0px"
	 viewBox="0 0 3000 3000" style="enable-background:new 0 0 3000 3000;" xml:space="preserve">
<g>
	<g>
		<g>
			<path d="M1052.2,1595.8c2.2,1.4-2.1,13.2-8,24.6c-20.7,39.6-55.5,61-79,68.3c-0.6,0.2-1.1,0.3-1.2,0.4c-15.1,4.5-31.4,6.3-49,5.1
				c-38-2.8-66.8-19.1-82.6-56.2c-5.4,4.4-10.4,8.8-15.7,12.8c-57.4,43.9-120.8,58.6-190.2,35c-33.2-11.3-57.9-33.4-65-69.9
				c-6-30.8,3.3-57.5,24.4-80.3c20.6-22.2,46.5-37,73.4-50.1c50.5-24.5,103.9-40.9,157.6-56.5c3.1-0.9,6.2-1.8,10.3-3
				c-1.3-34.7,3.1-69.4-5.4-103.6c-10.3-41.6-44.3-48.5-75.4-40.6c-12.1,3.1-20.9,11.7-25.3,23.1c-6.1,16.1-11.3,32.6-15.4,49.3
				c-10.4,42.1-50.8,63.6-91.4,47.9c-27.7-10.7-39.8-37.9-29.5-66.7c6.2-17.3,18.2-30.1,32.9-40.5c29.3-20.8,63-30.2,98-34.5
				c45.1-5.6,90.3-5.7,134.7,5.4c41.2,10.4,76,30.5,91.7,72.2c6.6,17.7,10.3,37.4,10.7,56.3c1.3,63.5,0.4,127,0.6,190.5
				c0,8.8,0.6,17.7,2.1,26.3c1.4,8.2,5.1,19.3,13.9,24.7c11.2,6.9,26.2,0.6,34.5-2.8C1034.7,1620.3,1048.8,1593.6,1052.2,1595.8z
				 M826.4,1449.9c-33.1,12.2-64.3,25.6-92,46.5c-32.7,24.7-46.1,57.4-40.8,97.9c3.6,27.2,23.3,45.1,50.8,46.9
				c28.3,1.9,52.5-8.1,75.1-23.8c5.5-3.8,7.5-7.9,7.5-14.5c-0.3-47.8-0.1-95.5-0.2-143.3C827,1456.8,826.7,1454,826.4,1449.9z"/>
			<path d="M2301,1595.8c2.2,1.4-2.1,13.2-8,24.6c-20.7,39.6-55.5,61-79,68.3c-0.6,0.2-1.1,0.3-1.2,0.4c-15.1,4.5-31.4,6.3-49,5.1
				c-38-2.8-66.8-19.1-82.6-56.2c-5.4,4.4-10.4,8.8-15.7,12.8c-57.4,43.9-120.8,58.6-190.2,35c-33.2-11.3-57.9-33.4-65-69.9
				c-6-30.8,3.3-57.5,24.4-80.3c20.6-22.2,46.5-37,73.4-50.1c50.5-24.5,103.9-40.9,157.6-56.5c3.1-0.9,6.2-1.8,10.3-3
				c-1.3-34.7,3.1-69.4-5.4-103.6c-10.3-41.6-44.3-48.5-75.4-40.6c-12.1,3.1-20.9,11.7-25.3,23.1c-6.1,16.1-11.3,32.6-15.4,49.3
				c-10.4,42.1-50.8,63.6-91.4,47.9c-27.7-10.7-39.8-37.9-29.5-66.7c6.2-17.3,18.2-30.1,32.9-40.5c29.3-20.8,63-30.2,98-34.5
				c45.1-5.6,90.3-5.7,134.7,5.4c41.2,10.4,76,30.5,91.7,72.2c6.6,17.7,10.3,37.4,10.7,56.3c1.3,63.5,0.4,127,0.6,190.5
				c0,8.8,0.6,17.7,2.1,26.3c1.4,8.2,5.1,19.3,13.9,24.7c11.2,6.9,26.2,0.6,34.5-2.8C2283.5,1620.3,2297.6,1593.6,2301,1595.8z
				 M2075.3,1449.9c-33.1,12.2-64.3,25.6-92,46.5c-32.7,24.7-46.1,57.4-40.8,97.9c3.6,27.2,23.3,45.1,50.8,46.9
				c28.3,1.9,52.5-8.1,75.1-23.8c5.5-3.8,7.5-7.9,7.5-14.5c-0.3-47.8-0.1-95.5-0.2-143.3C2075.8,1456.8,2075.5,1454,2075.3,1449.9z"
				/>
			<path d="M1418.6,1526.5c-13.2-9.7-26.6-18-38.3-28.4c-30.2-26.7-47.8-59.5-44.2-101.1c2.5-28.6,15.4-52.5,35-72.8
				c34.3-35.6,77.6-53.7,125.3-62.3c22.4-4.1,44.7-5.6,66.9-4.5c10.1,0.5,39.1,2.4,74.8,13.6c26.9,8.4,49.2,19.4,66.6,29.9
				c3.9,3,8.3,6.2,12.6,9.5c24.4,19,43.5,41.8,49.6,73c7.7,39.6-4.4,73.8-31.1,102.9c-31.8,34.7-72.9,52.6-118,61.9
				c-54.5,11.3-108.7,9.1-162.1-7.6c-2.1-0.7-4.8-2.1-6.5-1.4c-16.3,6.7-33.4,12.9-43.4,28.8c-9,14.2-4.2,31.2,12.1,35.6
				c19.4,5.2,39.7,8.3,59.8,9.2c51.1,2.4,102.3,2.5,153.4,4.7c42.1,1.8,83.4,8.7,121.7,27.5c30.4,14.9,53.8,36.6,61.3,71
				c0.8,3.7,4.3,19.3,0.9,45.1c-1.8,14.2-4.7,36.2-17.9,59.2c-5.9,10.2-15.7,24-44.9,46.3c-20.8,15.9-52.3,36.8-95.5,54.8
				c-35,12.4-101.2,30-179.7,15.4c-15.7-2.9-63.4-13-113.7-44.9c-36.6-23.2-49.6-42.3-54.8-50.5c-7.3-11.8-23.5-38-18.3-71.6
				c1.2-7.8,4.6-29.1,21.3-45.1c27-25.7,68.9-17,68.9-27.2c0-10.2-31.7-10.7-45.4-38.7c-14.6-29.9-9.3-57.9,10.7-83.4
				c15.1-19.3,35.6-31.6,57.3-42C1408.1,1530.9,1413.3,1528.9,1418.6,1526.5z M1502.8,1711.6c-14.6-0.6-26.6-0.4-35.3,0
				c-14.9,0.7-20.7,1.8-23.1,2.3c-13,2.7-22.7,7.5-26.3,9.6c-49.7,28-52.5,94.1-4.7,125.4c12.1,7.9,26,14.2,40,17.8
				c61.8,16,123.9,13.2,185.6-1.2c26.1-6.1,50.4-16.2,69.9-35.6c26.1-26,28.7-82.2-21.2-100.3c-14.2-5.1-24.6-7.6-47.7-9.8
				c-38.3-3.8-57.5-5.6-66.6-6.1C1555,1712.6,1531.1,1711.7,1502.8,1711.6z M1638.6,1404.3c-0.3-6.1-0.5-14.3-1.4-22.4
				c-2.7-25-8.9-48.8-23.9-69.6c-31.8-44.3-90-44.7-122-0.6c-6.3,8.6-11.4,18.4-15.2,28.4c-11.5,29.6-12.4,60.7-9.4,91.8
				c2.4,25.3,9.2,49.6,25.4,70c19.3,24.2,44.1,35.6,75.2,28.8c25-5.4,42-21.7,53.8-43.7C1634.6,1461.8,1637.9,1434.4,1638.6,1404.3z
				"/>
			<path d="M1248.4,1257.6c0,31,0,58.5,0,86c0,83.1-0.1,166.3-0.1,249.4c0,41.6,22.4,65.5,64.3,69.3c4.5,0.4,14.8,18,1.7,18
				c-86.2,0-172.4,0-258.7,0c-13.3,0,2.1-18,9.7-19.5c37.7-7.8,55.1-25,55.8-63.3c1.3-74.6,0.6-149.2-0.7-223.8
				c-0.5-29-19.7-47.4-48.6-51.3c-8.4-1.1-16.9-1.7-25.4-1.9c-5.9-0.1-9.2-2.1-9.9-8.3c-0.6-6,1.7-8.3,7.8-9.8
				c61.6-14.7,123.2-29.9,184.8-44.5C1235.6,1256.3,1242.8,1257.6,1248.4,1257.6z"/>
			<path d="M1261.3,1175.1c-11.5,43.3-82.9,63.3-121.3,35.1c-18.7-13.7-30.6-39.6-26.1-64.4c6.9-37.7,50.7-65.5,91.3-55.5
				C1244.8,1100.2,1269.8,1143.1,1261.3,1175.1z"/>
		</g>
	</g>
	<g>
		<g>
			<path d="M266.2,1078.1c-22,2.2-42.9,3-63.4,6.5c-65.5,10.9-111.1,50-144.4,105.3c-9.9,16.4-19,33.4-28.4,50.1
				c-2.8,5-15.9,8.2-20,4.2c-1.8-1.8-2.6-5.9-2.1-8.6c5.3-28.9,10.9-57.7,16.5-86.6c5.4-27.9,10.9-55.7,16-83.6c1-5.6,3-7.7,9-7.7
				c191.6,0.2,383.2,0.1,574.8,0.2c2.4,0,4.9,0.3,7.6,0.4c5.2,31.9,10.4,63.3,15.5,94.7c4.3,26.6,8.8,53.1,13,79.7
				c0.7,4.4,3.1,9.8-3,12.5c-6,2.7-16-0.3-19-5c-18.2-28.9-35.1-58.7-55-86.4c-28.7-40.1-67.9-64.9-117.6-70.9
				c-20-2.4-40.1-2.8-60.8-4.2c-0.2,4.1-0.4,6.5-0.4,8.9c0,165.6,0,331.2,0,496.8c0,22.2,5.1,42.6,22.7,58
				c12.9,11.2,28.6,15.9,45,18.6c6.1,1,12.3,1.6,18.3,2.4c2.6,12.7,1.2,14.5-11,14.5c-96.7,0-193.3,0-290,0c-1.4,0-6.8,1.1-8.6-1.5
				c-2.1-3,1.2-10,5.6-14.2c9.3-9.1,20.4-2.1,38.3-8.8c24.8-9.3,37.1-29,40.3-54.7c0.9-7.4,1.1-14.9,1.1-22.4
				c0.1-161.8,0-323.7,0-485.5C266.2,1087.3,266.2,1084.1,266.2,1078.1z"/>
		</g>
	</g>
</g>
<g>
	<path d="M2597.1,1181.7c-39.8,25-73,33.8-81.4,23.6c-7.5-9.2,4.7-34.4,24.7-60"/>
	<path d="M2753.4,1181.7c39.8,25,73.1,33.8,81.4,23.6c7.5-9.2-4.7-34.4-24.7-60"/>
	<path d="M2678.2,1307.3c-26.6,0.2-107.6-64.9-103.8-80.5c7.2-29.2,75.3-34.9,104.1-34.8c5.1,0,93.5,1.2,101.8,34.8
		C2783.9,1241.3,2706.3,1307.1,2678.2,1307.3z"/>
	<path d="M2758.2,1310.3c18.7,6.7,40.4,13.3,64.8,18.5c25.8,5.6,49.5,8.6,70.3,10.1c4.7-5.2,11.5-14,16.4-26.5
		c5.1-13.2,5.9-24.8,5.9-32c0.3-7.4-0.2-18.9-4.6-32c-3.5-10.3-8.3-18.2-12.2-23.6c-3.9-6.9-7.8-13.7-11.8-20.6
		c-11.7,8.6-23.7,17.8-36,27.8c-15.7,12.8-30.2,25.5-43.5,37.9C2791.1,1283.4,2774.6,1296.8,2758.2,1310.3z"/>
	<path d="M2592.3,1310.3c-18.7,6.7-40.4,13.3-64.8,18.5c-25.8,5.6-49.5,8.6-70.3,10.1c-4.7-5.2-11.5-14-16.4-26.5
		c-5.1-13.2-5.9-24.8-5.9-32c-0.3-7.4,0.2-18.9,4.6-32c3.5-10.3,8.3-18.2,12.2-23.6c3.9-6.9,7.8-13.7,11.8-20.6
		c11.7,8.6,23.7,17.8,36,27.8c15.7,12.8,30.2,25.5,43.5,37.9C2559.4,1283.4,2575.8,1296.8,2592.3,1310.3z"/>
	<path d="M2678.9,1300.9"/>
	<path d="M2732.4,1344.6c18.1,3.7,18.4,5.7,44.9,13c38.7,10.7,70.8,15.7,91.9,18.2c-18.6,22.9-45.9,51.9-83.8,79.3
		c-40.5,29.3-79.1,46.6-107.9,57.1c-30-10.9-70.6-29.2-112.8-60.6c-35.3-26.3-61.2-53.9-79.3-76.3c22.6-2.9,56.4-8.4,97-19.7
		c24.9-6.9,26.7-8.8,42.9-12C2642,1340.4,2682.4,1334.4,2732.4,1344.6z"/>
	<path d="M2382.8,1352.3c12.2,3.6,30.2,10.3,48.8,23.6c16.6,11.9,21.5,20.2,47.1,47.7c15.5,16.6,33.1,35.4,53.7,52.7
		c13.6,11.4,33.9,26.7,61.7,41.6c-29.3,6.7-63.6,12.6-102,15.7c-37.7,3.1-71.9,2.9-101.6,1.1c-8.7-12.5-28.4-44.6-30.3-90.3
		C2358.5,1398.9,2375.2,1365.5,2382.8,1352.3z"/>
	<path d="M2969.6,1356.7c-12.2,3.6-30.2,10.3-48.8,23.6c-16.6,11.9-21.5,20.2-47.1,47.7c-15.5,16.6-33.1,35.4-53.7,52.7
		c-13.6,11.4-33.9,26.7-61.7,41.6c29.3,6.7,63.6,12.6,102,15.7c37.7,3.1,71.9,2.9,101.6,1.1c8.7-12.5,28.4-44.6,30.3-90.3
		C2994,1403.3,2977.2,1369.9,2969.6,1356.7z"/>
	<path d="M2397.5,1564.1c13.8,25.6,46.2,76.9,108.4,116.2c75.5,47.6,149.7,48.9,178.4,48c30.1-0.1,99.2-4.5,170-48.8
		c55.5-34.8,87.2-78.5,102.7-103.5c-36.7,2.5-82.6,2.4-134.7-5.1c-72.5-10.4-85.3-35.7-141.7-37c-56.9-1.4-72.1,19.9-144.5,31.1
		C2477.9,1574,2428.9,1569.3,2397.5,1564.1z"/>
	<path d="M2677.2,1067.9c8.8,3.2,29.1,11.8,44.5,30.6c12.8,15.6,16.2,30.8,17.3,38.7c-6.2,6.6-15,14.6-26.8,22.4
		c-12.9,8.5-25.3,14.1-35,17.7c-9.4-3.3-22-8.5-35-17.1c-12.1-8-20.7-16.2-26.5-22.7c1-7.7,4.2-23.8,18-40.1
		C2649,1079.2,2668.5,1071,2677.2,1067.9z"/>
</g>
</svg>
