<?xml version="1.0" encoding="utf-8"?>
<!-- Generator: Adobe Illustrator 26.0.3, SVG Export Plug-In . SVG Version: 6.00 Build 0)  -->
<svg version="1.1" id="Layer_1" xmlns="http://www.w3.org/2000/svg" xmlns:xlink="http://www.w3.org/1999/xlink" x="0px" y="0px"
	 viewBox="0 0 3000 3000" style="enable-background:new 0 0 3000 3000;" xml:space="preserve">
<g>
	<path d="M1140.8,516.8c-180.6,113.3-331.8,153.4-369.6,107c-33.9-41.6,21.2-156.1,112.1-272.6"/>
	<path d="M1850.3,516.8c180.6,113.3,331.8,153.4,369.6,107c33.9-41.6-21.2-156.1-112.1-272.6"/>
	<path d="M1508.9,1087.4c-120.6,0.8-488.8-294.9-471.5-365.7c32.5-132.7,341.9-158.7,472.7-158c23.4,0.1,424.6,5.2,462.5,158
		C1989,787.7,1636.6,1086.6,1508.9,1087.4z"/>
	<path d="M1872.4,1100.9c85.1,30.5,183.6,60.3,294.3,84.1c117.3,25.2,224.9,39,319.2,45.9c21.4-23.6,52.4-63.6,74.5-120.4
		c23.4-59.9,27-112.8,26.8-145.3c1.3-33.6-0.9-85.8-21-145.3c-15.9-47-37.8-82.8-55.4-107c-17.9-31.2-35.7-62.4-53.5-93.7
		c-53.2,38.9-107.8,80.8-163.4,126.2c-71.3,58-137.1,115.8-197.5,172C2021.7,978.6,1947,1039.8,1872.4,1100.9z"/>
	<path d="M1118.7,1100.9c-85.1,30.5-183.6,60.3-294.3,84.1c-117.3,25.2-224.9,39-319.2,45.9c-21.4-23.6-52.4-63.6-74.5-120.4
		c-23.4-59.9-27-112.8-26.8-145.3c-1.3-33.6,0.9-85.8,21-145.3c15.9-47,37.8-82.8,55.4-107c17.9-31.2,35.6-62.4,53.5-93.7
		c53.2,38.9,107.8,80.8,163.4,126.2c71.3,58,137.1,115.8,197.5,172C969.4,978.6,1044.1,1039.8,1118.7,1100.9z"/>
	<path d="M1512.4,1058.3"/>
	<path d="M1755.2,1256.9c82.1,16.9,83.7,25.7,204,59c175.7,48.6,321.7,71.2,417.5,82.6c-84.6,104.2-208.7,235.8-380.7,360.2
		c-183.8,132.9-359.2,211.8-490.2,259.2c-136.4-49.4-320.6-132.6-512.2-275.2c-160.5-119.4-278-244.6-360.2-346.4
		c102.5-13.3,255.9-38.3,440.4-89.4c113.2-31.4,121.2-40.2,195-54.4C1344.7,1237.8,1527.9,1210.2,1755.2,1256.9z"/>
	<path d="M167.4,1291.5c55.4,16.4,137.4,46.9,221.7,107c75.5,53.9,97.6,92,214,216.6c70.5,75.5,150.4,161,244,239.4
		c61.6,51.6,153.9,121.1,280.4,188.7c-133.2,30.4-288.7,57.1-463.2,71.4c-171.4,14-326.7,13.1-461.3,5.1
		c-39.3-56.8-129-202.4-137.6-410.3C56.9,1503.2,133.1,1351.5,167.4,1291.5z"/>
	<path d="M2832.6,1311.7c-55.4,16.4-137.4,46.9-221.7,107c-75.5,53.9-97.6,92-214,216.6c-70.5,75.5-150.4,161-244,239.4
		c-61.6,51.6-153.9,121.1-280.4,188.7c133.2,30.4,288.7,57.1,463.2,71.4c171.4,14,326.7,13.1,461.3,5.1
		c39.3-56.8,129-202.4,137.7-410.3C2943,1523.3,2866.9,1371.7,2832.6,1311.7z"/>
	<path d="M234.3,2253.8c62.8,116.1,209.6,349.2,492.5,527.5c342.7,216.1,680,222.3,810.4,217.9c136.8-0.5,450.5-20.4,772.2-221.7
		c252.2-157.9,396.2-356.6,466.4-470.2c-166.6,11.2-375.1,10.9-611.6-23c-329.1-47.1-387.3-162-643.6-168.2
		c-258.4-6.3-327.2,90.6-656,141.5C599.5,2298.5,377,2277,234.3,2253.8z"/>
	<path d="M1504.3,0c40.2,14.7,132,53.6,202,138.9c58.1,70.9,73.7,140.1,78.6,175.8c-28.3,30-68,66.4-121.8,101.9
		c-58.4,38.6-114.7,63.8-158.8,80.3c-42.9-14.8-99.8-38.8-158.8-77.8c-54.8-36.2-93.8-73.6-120.2-103.2
		c4.4-35.1,19.3-108.2,81.7-182.2C1376.2,51.6,1465,14.2,1504.3,0z"/>
</g>
</svg>
